PathFileType	4	(X/Y/Z)	Patient4_TMGait_0pt5_01_right_21.trc.trc
DataRate	CameraRate	NumFrames	NumMarkers	Units	OrigDataRate	OrigDataStartFrame	OrigNumFrames
77.348066298342	77.348066298342	4	33	mm	77.348066298342	124	       141
Frame#	Time	L.ASIS			Sacral			L.Shoulder			Chest			R.Shoulder			Neck			R.ASIS			R.Thigh.Superior			R.Thigh.Lateral			R.Thigh.Inferior			R.Patella			L.Thigh.Superior			L.Thigh.Lateral			L.Thigh.Inferior			L.Patella			L.Shank.Superior			L.Shank.Lateral			L.Shank.Inferior			R.Shank.Superior			R.Shank.Lateral			R.Shank.Inferior			R.Heel			R.Midfoot.Superior			R.Midfoot.Lateral			R.Toe			L.Heel			L.Midfoot.Lateral			L.Midfoot.Superior			L.Toe			L.Elbow			L.Wrist			R.Elbow			R.Wrist			
		X1	Y1	Z1	X2	Y2	Z2	X3	Y3	Z3	X4	Y4	Z4	X5	Y5	Z5	X6	Y6	Z6	X7	Y7	Z7	X8	Y8	Z8	X9	Y9	Z9	X10	Y10	Z10	X11	Y11	Z11	X12	Y12	Z12	X13	Y13	Z13	X14	Y14	Z14	X15	Y15	Z15	X16	Y16	Z16	X17	Y17	Z17	X18	Y18	Z18	X19	Y19	Z19	X20	Y20	Z20	X21	Y21	Z21	X22	Y22	Z22	X23	Y23	Z23	X24	Y24	Z24	X25	Y25	Z25	X26	Y26	Z26	X27	Y27	Z27	X28	Y28	Z28	X29	Y29	Z29	X30	Y30	Z30	X31	Y31	Z31	X32	Y32	Z32	X33	Y33	Z33	

124	29.060214285714	940.068144986160	953.579677848053	305.068207273749	715.657865893268	998.043635375117	445.717073798577	902.485004733871	1430.139565068677	287.653651855137	990.837073064894	1357.527873325271	455.856134451138	890.719351235623	1427.394507809986	623.620690446088	888.118893385162	1487.724478045546	439.150976661064	932.678034607988	931.866012238822	579.690061663503	1001.154106625177	752.832689933979	554.370165208474	942.322017877574	632.281647722802	619.769571842103	1033.443098472803	592.422165125043	544.325464975358	1059.972753576008	509.415145566351	555.808297826989	934.872469148934	724.555502237979	332.521452841994	816.605107371843	634.479260086163	267.437519394351	869.952057369405	539.151660103835	334.518986094331	854.554108302130	472.535572299980	343.773347901945	819.405891423959	409.509421989930	336.015221269189	719.319723749616	304.799809163098	284.825585567231	755.700685427711	190.313374403775	359.722432781427	1044.872442261837	420.540573843936	563.809430812395	989.215286617389	306.367033637611	622.576760212129	1058.028723157703	220.769864945783	570.710010052070	960.559847219374	40.715429118807	539.795745649423	1124.991897194422	108.360233647859	579.001020279094	1043.500733672727	38.200357916710	614.228936666420	1247.557970733102	67.195206040136	608.410330797507	614.516610982373	39.779663037850	403.103985871744	688.475216739608	35.417707122338	322.892835305900	772.682083526160	95.539666400716	348.976681963329	900.297330995080	41.347600139092	321.007779300889	960.148917905563	1102.490344562796	127.403244652016	1211.331837350717	1056.898219030773	157.171722892347	749.447771467527	1109.336319447594	721.190308572171	718.684713052479	850.055797806035	717.386800359337	
125	29.073142857143	942.247356999253	952.724932963048	307.595591978979	717.540808041922	996.694567118969	448.036891021903	903.386541201494	1429.211044038937	290.350498831111	991.638120182276	1356.905831157395	458.780397304371	890.851832933941	1426.471290867143	626.345759877539	888.678757912943	1486.836727037813	441.861048962077	934.804386306645	930.944352923364	582.214105056978	1003.891987380930	751.997683137571	556.132352052408	944.142015341208	631.195672912114	620.286710115482	1035.494158139700	591.692438395966	545.206172090070	1060.933368983095	507.981707964756	556.142669052489	936.418464521728	723.504091630787	334.433401372415	817.630864933169	633.834455547363	269.300702411267	870.444809061819	538.041566075472	336.328829895084	854.654770076965	470.971992307207	345.453895714334	818.343998339793	408.286323765232	337.429130872870	716.624622875930	305.296731790645	285.649018986666	750.953775799901	189.949793403126	360.082203346927	1045.211679850881	418.545318507838	563.997483332722	988.262985593153	304.899557886001	622.384558451470	1055.559600908444	218.662108043039	570.077151307334	955.011090305031	41.201686101645	539.074707899907	1120.883121680959	105.731273387427	577.884970158354	1037.843774774180	37.730923758269	613.637432242788	1242.674691789450	62.081490591761	607.242711127833	608.007899467173	40.543131079070	402.760715335921	682.099413675855	35.668269935968	322.760654032624	766.494174883644	95.615386403968	348.846612083077	893.966656443412	40.948213749206	320.971088998814	961.007841554336	1101.174168117886	130.451687236399	1212.511278873718	1057.301616640159	160.080250528468	747.324423789778	1109.515049669571	722.838593616773	714.850875934660	850.351567616780	718.864588326495	
126	29.086071428571	944.385811842022	952.074556999316	310.297806498048	719.410397667123	995.607160083775	450.497660499979	904.372795031515	1428.497970344179	293.123979768527	992.506662649501	1356.502916743183	461.795003666060	891.050672669239	1425.770647566752	629.159194999912	889.359142655668	1486.203128726807	444.648870472072	936.922999559302	930.329506562860	584.925804936099	1006.793165235583	751.565646440849	557.928763990095	946.329117976079	630.531952722337	620.931804099803	1037.821302635229	591.338352365221	546.116595529259	1062.139205889498	506.714696458394	556.598894222446	938.270622892348	722.711212284515	336.443985716148	819.088733912549	633.277046463688	271.377362527381	871.615569195231	537.084829830873	338.257354210488	855.440184844040	469.434280200366	347.228544243377	817.880958544255	407.066613948832	338.927126457995	714.339599454834	306.026599384291	286.568574537318	746.473525803071	189.723579497213	360.396777438775	1045.575999253428	416.757410940565	564.265610719736	987.206955701525	303.792728471104	622.485106593033	1052.545451546843	216.712636423501	569.537749603618	948.475720591675	41.739257492604	538.569343671604	1115.689600028321	103.394681293889	576.932365359080	1031.240967794095	37.362515612186	613.219036152213	1236.825661850943	57.453331853366	606.212139094231	601.538199241122	41.714436466675	402.339489950870	675.761402814751	36.081764755658	322.581411660376	760.456551465209	95.739324439821	348.615570888883	887.667775330777	40.502485420284	320.914120563970	961.457831174362	1099.872376107799	133.686054871987	1213.164066017833	1056.704438109229	163.130076191002	746.355183455665	1109.310694652085	724.567133373953	712.788357797295	850.154922565454	720.275826341338	
127	29.099000000000	946.446961383874	951.682634285801	313.163723885696	721.275458394515	994.834608493809	453.098054694083	905.451697356082	1428.057315941888	295.954816358909	993.446335841494	1356.363580263736	464.872732064238	891.341363567054	1425.353798393704	632.035557870275	890.166813727833	1485.872659036969	447.490409981183	939.010523472005	930.059261236949	587.811510467816	1009.725120788901	751.494616871514	559.779960658140	948.729793382480	630.271572685102	621.775505588613	1040.224419817808	591.287933923868	547.095212947645	1063.409653115563	505.628856162772	557.218491374615	940.370496048702	722.226449368814	338.565399227451	820.958670469304	632.843569272543	273.643836503619	873.473423652952	536.327289461492	340.275073690013	856.937954087514	467.960573516915	349.025506803830	818.024279900992	405.901580789734	340.456912820180	712.473914486832	307.052350694830	287.568089425105	742.302205307452	189.702689282537	360.637333866967	1045.864489731039	415.227483523466	564.651121989508	986.075136277862	303.030196467400	622.901121914836	1049.158684815707	215.000689439167	569.132971105732	941.425098663227	42.235655564045	538.279743937472	1109.767207773868	101.481668491252	576.196957864796	1024.149853679879	37.092760440539	612.981729391877	1230.405496562264	53.614163749611	605.407215840574	595.147411895590	43.408472017614	401.847760089807	669.476408219078	36.719795653878	322.356465914534	754.617352303365	95.926360560485	348.263202809413	881.391554478052	40.026707727129	320.839874299910	961.494327688312	1098.652566081770	137.106336391347	1213.278506257047	1055.098254699074	166.320091029954	746.532575406158	1108.788485480636	726.389403430715	712.548097018756	849.530409990739	721.664224132604	
